<svg width="160" height="160" viewBox="0 0 160 160" fill="none" xmlns="http://www.w3.org/2000/svg">
<path d="M90.8697 21.7105C92.4934 22.0833 94.1107 22.479 95.7279 22.8789C96.4163 23.0366 96.4163 23.0366 97.1186 23.1974C100.916 24.156 100.916 24.156 102.05 25.6893C102.662 26.9841 102.852 27.9897 102.921 29.4111C103.044 30.8746 103.324 32.2981 103.615 33.7355C103.719 34.2621 103.824 34.7888 103.932 35.3315C105.575 41.8951 111.151 45.2 116.542 48.5783C122.631 52.4018 128.724 56.8068 130.836 64.0439C131.368 66.5497 131.107 68.6779 130.112 71.037C128.929 72.8072 127.44 73.9428 125.358 74.4546C123.672 74.5587 122.306 74.3264 120.897 73.3658C118.334 70.905 117.764 67.6361 117.047 64.2843C116.302 61.1244 114.784 58.3349 111.981 56.5574C108.779 55.0328 105.496 54.1717 102.016 55.1153C99.0254 56.4079 96.5201 59.1957 95.2504 62.1826C94.9568 63.0627 94.6965 63.9457 94.449 64.8398C94.3555 65.1602 94.262 65.4805 94.1656 65.8106C93.8717 66.8224 93.5854 67.8361 93.2994 68.8501C93.1 69.5414 92.9001 70.2325 92.6997 70.9235C92.2125 72.6072 91.7323 74.2928 91.2558 75.9795C91.5546 76.0296 91.8534 76.0797 92.1613 76.1313C95.0681 76.6351 97.9084 77.2674 100.758 78.0275C101.38 78.1921 101.38 78.1921 102.015 78.36C102.881 78.5899 103.747 78.8209 104.613 79.053C105.941 79.4079 107.271 79.7564 108.601 80.1048C109.446 80.33 110.291 80.5556 111.136 80.7816C111.533 80.885 111.931 80.9884 112.34 81.095C112.89 81.2443 112.89 81.2443 113.451 81.3966C113.773 81.4824 114.096 81.5682 114.428 81.6566C115.238 81.9791 115.238 81.9791 116.219 83.0948C115.861 85.6018 114.59 87.5621 113.279 89.6908C112.986 90.1794 112.986 90.1794 112.688 90.6778C111.314 92.9397 109.802 95.0546 108.188 97.1499C107.91 97.5209 107.633 97.8919 107.347 98.2741C106.741 99.0836 106.135 99.8932 105.53 100.703C105.04 100.431 104.55 100.159 104.045 99.8783C104.14 99.3844 104.236 98.8904 104.334 98.3815C104.451 97.7203 104.568 97.0591 104.684 96.3977C104.78 95.9117 104.78 95.9117 104.878 95.4159C105.27 93.1093 105.215 91.2024 103.925 89.1837C102.381 87.5934 100.904 86.8973 98.8059 86.3143C98.5198 86.23 98.2336 86.1457 97.9387 86.0588C97.0324 85.793 96.124 85.535 95.2153 85.2773C94.5971 85.0974 93.979 84.9171 93.3611 84.7363C91.853 84.2961 90.3432 83.863 88.832 83.4336C88.7729 83.6602 88.7137 83.8868 88.6528 84.1203C87.206 89.661 85.7501 95.1992 84.2845 100.735C83.5759 103.412 82.8703 106.09 82.1719 108.77C81.4965 111.36 80.8132 113.948 80.1246 116.534C79.8643 117.517 79.6067 118.501 79.3521 119.486C77.0164 128.507 73.9978 136.075 65.6755 141.204C58.7073 144.941 51.2929 145.314 43.827 143.226C37.6439 141.349 32.8859 137.291 29.3572 131.899C27.6606 128.72 26.5552 125.608 26.0253 122.05C25.9737 121.754 25.9221 121.458 25.869 121.153C24.9795 115.778 27.0367 109.102 30.133 104.717C31.4378 103.125 32.8085 101.73 34.3839 100.405C34.6968 100.134 35.0098 99.8627 35.3322 99.5832C39.9965 95.8274 46.6704 93.8827 52.6754 94.2175C58.4059 95.3437 63.4329 97.0029 68.122 100.517C68.6031 100.877 68.6031 100.877 69.0939 101.245C69.3388 101.428 69.5836 101.612 69.8359 101.801C69.9381 101.372 70.0403 100.943 70.1456 100.501C73.8817 84.8707 78.0492 69.3605 82.2286 53.8447C83.1752 50.3301 84.1194 46.8148 85.0634 43.2996C86.9963 36.1025 88.9319 28.9062 90.8697 21.7105Z" fill="#2B0909"/>
</svg>
