<svg xmlns="http://www.w3.org/2000/svg" width="180" height="180" viewBox="0 0 180 180">
  <style>
    .icon-fill {
      fill: #2c1810;
    }
    @media (prefers-color-scheme: dark) {
      .icon-fill {
        fill: #ffffff;
      }
    }
  </style>
  <!-- ProMusic music note icon scaled for 180x180 -->
  <path class="icon-fill" d="M115.3 17C115.3 17 123.7 17 132.1 42.3C140.6 33.8 140.6 45 140.6 45V123.8C140.6 123.8 140.6 137.8 129.4 149C118.1 160.1 101.3 162.9 90 162.9C78.8 162.9 61.9 160.1 50.6 149C39.4 137.8 39.4 123.8 39.4 123.8C39.4 123.8 39.4 109.7 50.6 98.5C61.9 87.2 78.8 84.4 90 84.4C98.4 84.4 106.9 86.1 115.3 90V45L78.8 67.5V45L115.3 17Z"/>
</svg>
