<svg xmlns="http://www.w3.org/2000/svg" width="32" height="32" viewBox="0 0 32 32">
  <style>
    .icon-fill {
      fill: #2c1810;
    }
    @media (prefers-color-scheme: dark) {
      .icon-fill {
        fill: #ffffff;
      }
    }
  </style>
  <!-- Music note icon -->
  <path class="icon-fill" d="M20.5 3C20.5 3 22 3 23.5 4.5C25 6 25 8 25 8V22C25 22 25 24.5 23 26.5C21 28.5 18 29 16 29C14 29 11 28.5 9 26.5C7 24.5 7 22 7 22C7 22 7 19.5 9 17.5C11 15.5 14 15 16 15C17.5 15 19 15.3 20.5 16V8L14 12V8L20.5 3Z"/>
</svg>
